HIERARCHY
ROOT Hips
{
	OFFSET -0.001795 -0.223333 0.028219
	CHANNELS 6 Xposition Yposition Zposition Zrotation Yrotation Xrotation 
	JOINT LeftUpLeg
	{
		OFFSET 0.069520 -0.091406 -0.006815
		CHANNELS 3 Zrotation Yrotation Xrotation
		JOINT LeftLeg
		{
			OFFSET 0.034277 -0.375199 -0.004496
			CHANNELS 3 Zrotation Yrotation Xrotation
			JOINT LeftFoot
			{
				OFFSET -0.013596 -0.397961 -0.043693
				CHANNELS 3 Zrotation Yrotation Xrotation
				JOINT LeftToe
				{
					OFFSET 0.026358 -0.055791 0.119288
					CHANNELS 3 Zrotation Yrotation Xrotation
					End Site
					{
						OFFSET 0.000000 0.000000 0.000000
					}
				}
			}
		}
	}
	JOINT RightUpLeg
	{
		OFFSET -0.067670 -0.090522 -0.004320
		CHANNELS 3 Zrotation Yrotation Xrotation
		JOINT RightLeg
		{
			OFFSET -0.038290 -0.382569 -0.008850
			CHANNELS 3 Zrotation Yrotation Xrotation
			JOINT RightFoot
			{
				OFFSET 0.015774 -0.398415 -0.042312
				CHANNELS 3 Zrotation Yrotation Xrotation
				JOINT RightToe
				{
					OFFSET -0.025372 -0.048144 0.123348
					CHANNELS 3 Zrotation Yrotation Xrotation
					End Site
					{
						OFFSET 0.000000 0.000000 0.000000
					}
				}
			}
		}
	}
	JOINT Spine
	{
		OFFSET -0.002533 0.108963 -0.026696
		CHANNELS 3 Zrotation Yrotation Xrotation
		JOINT Spine1
		{
			OFFSET 0.005487 0.135180 0.001092
			CHANNELS 3 Zrotation Yrotation Xrotation
			JOINT Spine2
			{
				OFFSET 0.001457 0.052922 0.025425
				CHANNELS 3 Zrotation Yrotation Xrotation
				JOINT Neck
				{
					OFFSET -0.002778 0.213870 -0.042857
					CHANNELS 3 Zrotation Yrotation Xrotation
					JOINT Head
					{
						OFFSET 0.005152 0.064970 0.051349
						CHANNELS 3 Zrotation Yrotation Xrotation
						End Site
						{
							OFFSET 0.000000 0.000000 0.000000
						}
					}
				}
				JOINT LeftShoulder
				{
					OFFSET 0.078845 0.121749 -0.034090
					CHANNELS 3 Zrotation Yrotation Xrotation
					JOINT LeftArm
					{
						OFFSET 0.090977 0.030469 -0.008868
						CHANNELS 3 Zrotation Yrotation Xrotation
						JOINT LeftForeArm
						{
							OFFSET 0.259612 -0.012772 -0.027456
							CHANNELS 3 Zrotation Yrotation Xrotation
							JOINT LeftHand
							{
								OFFSET 0.249234 0.008986 -0.001171
								CHANNELS 3 Zrotation Yrotation Xrotation
								End Site
								{
									OFFSET 0.000000 0.000000 0.000000
								}
							}
						}
					}
				}
				JOINT RightShoulder
				{
					OFFSET -0.081759 0.118833 -0.038615
					CHANNELS 3 Zrotation Yrotation Xrotation
					JOINT RightArm
					{
						OFFSET -0.096012 0.032551 -0.009143
						CHANNELS 3 Zrotation Yrotation Xrotation
						JOINT RightForeArm
						{
							OFFSET -0.253742 -0.013329 -0.021401
							CHANNELS 3 Zrotation Yrotation Xrotation
							JOINT RightHand
							{
								OFFSET -0.255298 0.007772 -0.005559
								CHANNELS 3 Zrotation Yrotation Xrotation
								End Site
								{
									OFFSET 0.000000 0.000000 0.000000
								}
							}
						}
					}
				}
			}
		}
	}
}
MOTION
Frames: 7
Frame Time: 0.050000
0.000000 0.967634 0.000000 -0.519144 2.081500 -0.399973 4.752473 0.106932 3.887490 -0.698538 0.095361 -0.757972 0.013471 4.447370 10.601567 0.000000 0.000000 0.000000 -2.093231 -0.056599 1.124142 1.417406 -0.078078 3.079151 -4.959939 -14.476010 16.004267 0.000000 0.000000 0.000000 -2.443636 -0.016327 1.624560 5.756647 -1.020319 -20.548534 -0.063189 -1.678427 27.755629 -0.046988 1.507048 -25.661161 0.000000 0.000000 0.000000 9.798663 -23.162215 5.920326 5.651216 -43.859832 -4.716000 112.895218 -10.615691 -14.744290 0.000000 0.000000 0.000000 -22.839405 30.462107 4.332455 -4.714545 39.100256 -3.836086 -110.273734 11.514153 -13.187054 0.000000 0.000000 0.000000 
0.001194 0.965608 0.003297 -1.362842 1.487635 0.518694 6.042472 0.023571 3.507306 -1.071939 0.161304 -1.911760 -0.262920 4.190059 11.396679 0.000000 0.000000 0.000000 -1.090985 0.015151 0.091690 0.999503 0.010815 4.044082 -4.417385 -13.391154 14.105392 0.000000 0.000000 0.000000 -2.569112 0.024323 -0.037657 6.070558 -0.974230 -22.350398 1.250128 -2.038779 30.271433 -0.593411 1.768762 -27.238280 0.000000 0.000000 0.000000 12.526125 -22.901133 5.194997 5.933774 -45.129373 -4.890401 115.308356 -7.240939 -9.997337 0.000000 0.000000 0.000000 -28.669586 29.347407 2.694866 -4.538638 38.468310 -3.762525 -112.969031 6.052085 -6.448195 0.000000 0.000000 0.000000 
0.002596 0.964156 0.006212 -0.835385 1.561830 0.463766 5.746803 0.051056 3.819430 -1.387339 0.180461 -1.496935 -0.695686 3.018301 10.143843 0.000000 0.000000 0.000000 -2.043253 0.029405 0.162125 0.925740 0.007225 3.575378 -4.063666 -12.949539 15.514405 0.000000 0.000000 0.000000 -2.237765 0.014722 0.255465 5.874823 -0.846368 -23.342569 0.398692 -2.702769 31.509019 -0.636875 1.647943 -26.817836 0.000000 0.000000 0.000000 13.326219 -22.695710 4.864190 7.824593 -42.798395 -4.954525 116.913562 -5.905477 -8.392562 0.000000 0.000000 0.000000 -32.060536 28.155880 1.806785 -5.588383 39.095497 -4.205015 -113.375717 3.032769 -2.678135 0.000000 0.000000 0.000000 
0.003977 0.964398 0.008637 -1.019530 2.187254 0.872938 6.164164 0.012589 3.872507 -1.652814 0.215675 -2.176007 -1.188382 2.199904 10.040757 0.000000 0.000000 0.000000 -1.746851 0.075150 -0.445893 0.740803 0.044563 4.030235 -4.464333 -13.637052 16.285144 0.000000 0.000000 0.000000 -2.539956 0.040804 -0.874208 6.499548 -1.015823 -23.047770 -0.035291 -4.239105 31.981264 -0.312399 1.256751 -27.032347 0.000000 0.000000 0.000000 14.659058 -22.902694 4.488436 7.925692 -41.783570 -4.601697 119.756944 -2.950294 -3.579967 0.000000 0.000000 0.000000 -34.290122 28.988900 1.494490 -8.637470 38.164721 -5.015744 -114.427395 0.179448 0.476640 0.000000 0.000000 0.000000 
0.005469 0.964653 0.010674 -0.932747 2.318093 1.110279 6.154245 -0.007404 3.419620 -1.771102 0.213510 -1.538388 -1.441136 1.676089 9.792260 0.000000 0.000000 0.000000 -1.890574 0.095385 -0.648445 0.563333 0.079622 4.333505 -4.283251 -13.293772 16.146991 0.000000 0.000000 0.000000 -2.553489 0.039472 -0.705666 6.570799 -1.051251 -22.772262 -0.083229 -4.736939 31.304053 -0.676624 1.380329 -26.534223 0.000000 0.000000 0.000000 15.068608 -22.881873 4.389818 9.238243 -41.686735 -4.846217 121.184176 -3.274043 -4.081062 0.000000 0.000000 0.000000 -34.576879 29.044241 1.588045 -10.928067 38.583482 -5.780288 -114.482391 0.352147 -0.128866 0.000000 0.000000 0.000000 
0.007254 0.965115 0.012627 -1.211837 2.969869 1.527180 6.479179 -0.059381 2.906415 -1.770992 0.213119 -1.662353 -1.845288 1.214546 10.188146 0.000000 0.000000 0.000000 -2.246453 0.127620 -0.978229 1.071383 0.000369 4.354651 -3.687363 -12.282068 16.931395 0.000000 0.000000 0.000000 -2.654379 0.044996 -0.861893 6.769221 -1.074199 -22.949900 0.152050 -5.331639 30.889406 -0.730897 1.447639 -27.893460 0.000000 0.000000 0.000000 16.234838 -23.125415 4.174980 8.570767 -42.735609 -4.773806 123.352433 -3.552957 -4.321736 0.000000 0.000000 0.000000 -35.603093 28.936862 1.435989 -11.264826 38.479421 -5.875340 -114.542533 0.064093 0.206217 0.000000 0.000000 0.000000 
0.009286 0.965641 0.014764 -1.224245 3.705560 1.881785 6.691391 -0.102793 2.440102 -1.694540 0.200826 -1.520375 -2.854660 -0.379331 10.328983 0.000000 0.000000 0.000000 -2.175152 0.146122 -1.218916 0.617860 0.055437 4.033007 -3.767100 -12.491336 18.495532 0.000000 0.000000 0.000000 -2.414220 0.045875 -0.868886 6.721631 -1.022802 -23.273545 0.094137 -5.941996 30.381840 -0.688147 1.394637 -27.782507 0.000000 0.000000 0.000000 16.437578 -23.144531 4.143945 8.693786 -43.417484 -4.879697 124.699137 -3.740188 -4.587125 0.000000 0.000000 0.000000 -35.885883 29.368783 1.441578 -12.021079 38.784747 -6.166246 -115.170613 -0.318174 0.781396 0.000000 0.000000 0.000000 
